<svg width="720" height="1280" viewBox="0 0 720 1280" fill="none" xmlns="http://www.w3.org/2000/svg">
  <defs>
    <linearGradient id="bg" x1="0" y1="0" x2="0" y2="1280" gradientUnits="userSpaceOnUse">
      <stop stop-color="#0B1526"/>
      <stop offset="1" stop-color="#060C16"/>
    </linearGradient>
    <linearGradient id="panel" x1="0" y1="0" x2="605" y2="1100" gradientUnits="userSpaceOnUse">
      <stop stop-color="#13223A" stop-opacity="0.98"/>
      <stop offset="1" stop-color="#0D182B" stop-opacity="0.96"/>
    </linearGradient>
    <linearGradient id="active" x1="0" y1="0" x2="300" y2="80" gradientUnits="userSpaceOnUse">
      <stop stop-color="#1D4ED8"/>
      <stop offset="1" stop-color="#53B2FF"/>
    </linearGradient>
    <linearGradient id="button" x1="0" y1="0" x2="240" y2="68" gradientUnits="userSpaceOnUse">
      <stop stop-color="#173A63"/>
      <stop offset="1" stop-color="#245691"/>
    </linearGradient>
    <radialGradient id="glow" cx="0" cy="0" r="1" gradientUnits="userSpaceOnUse" gradientTransform="translate(530 150) rotate(135) scale(180 180)">
      <stop stop-color="#4BA9FF" stop-opacity="0.28"/>
      <stop offset="1" stop-color="#4BA9FF" stop-opacity="0"/>
    </radialGradient>
    <filter id="shadow" x="-40" y="-40" width="800" height="1360" filterUnits="userSpaceOnUse" color-interpolation-filters="sRGB">
      <feDropShadow dx="0" dy="24" stdDeviation="24" flood-color="#010713" flood-opacity="0.55"/>
    </filter>
    <filter id="soft" x="-20" y="-20" width="760" height="1320" filterUnits="userSpaceOnUse" color-interpolation-filters="sRGB">
      <feDropShadow dx="0" dy="10" stdDeviation="15" flood-color="#50AFFF" flood-opacity="0.12"/>
    </filter>
  </defs>

  <rect width="720" height="1280" fill="url(#bg)"/>
  <circle cx="585" cy="145" r="180" fill="url(#glow)"/>
  <circle cx="90" cy="1140" r="220" fill="#0F2845" fill-opacity="0.35"/>

  <g filter="url(#shadow)">
    <rect x="58" y="42" width="604" height="1194" rx="42" fill="url(#panel)" stroke="#7EA6FF" stroke-opacity="0.14"/>
  </g>

  <rect x="58" y="42" width="8" height="1194" rx="4" fill="url(#active)"/>

  <text x="120" y="110" fill="#ECF4FF" font-family="Inter, Segoe UI, Arial" font-size="34" font-weight="800">Placify</text>
  <text x="120" y="141" fill="#79B6FF" font-family="Inter, Segoe UI, Arial" font-size="14" font-weight="700" letter-spacing="3">AI READINESS SUITE</text>
  <rect x="82" y="77" width="28" height="28" rx="10" fill="url(#active)"/>
  <path d="M96 84L103 91L96 98L89 91L96 84Z" fill="white"/>

  <text x="88" y="192" fill="#7FA1C9" font-family="Inter, Segoe UI, Arial" font-size="12" font-weight="800" letter-spacing="2.4">WORKSPACE</text>
  <g filter="url(#soft)">
    <rect x="82" y="210" width="556" height="154" rx="28" fill="#101E33" stroke="#6B9DFF" stroke-opacity="0.14"/>
  </g>
  <circle cx="142" cy="268" r="32" fill="#203D68"/>
  <text x="130" y="276" fill="#ECF4FF" font-family="Inter, Segoe UI, Arial" font-size="22" font-weight="800">SJ</text>
  <circle cx="168" cy="294" r="11" fill="#29D391" stroke="#101E33" stroke-width="4"/>
  <text x="192" y="255" fill="#ECF4FF" font-family="Inter, Segoe UI, Arial" font-size="24" font-weight="800">Sarah Johnson</text>
  <text x="192" y="285" fill="#8EA2C5" font-family="Inter, Segoe UI, Arial" font-size="15" font-weight="600">Student Workspace</text>
  <text x="192" y="317" fill="#79B6FF" font-family="Inter, Segoe UI, Arial" font-size="14" font-weight="700">Target Role: Software Engineer</text>
  <rect x="504" y="232" width="110" height="62" rx="20" fill="#122B4C"/>
  <text x="522" y="258" fill="#87BFFF" font-family="Inter, Segoe UI, Arial" font-size="12" font-weight="800" letter-spacing="1.8">READINESS</text>
  <text x="525" y="286" fill="#ECF4FF" font-family="Inter, Segoe UI, Arial" font-size="24" font-weight="800">78%</text>

  <text x="88" y="420" fill="#7FA1C9" font-family="Inter, Segoe UI, Arial" font-size="12" font-weight="800" letter-spacing="2.4">NAVIGATION</text>
  <g>
    <rect x="82" y="438" width="556" height="64" rx="22" fill="url(#active)"/>
    <rect x="82" y="438" width="6" height="64" rx="3" fill="#BFE1FF"/>
    <circle cx="118" cy="470" r="16" fill="#FFFFFF" fill-opacity="0.14"/>
    <rect x="111" y="463" width="14" height="14" rx="4" stroke="white" stroke-width="2"/>
    <text x="148" y="478" fill="#FFFFFF" font-family="Inter, Segoe UI, Arial" font-size="18" font-weight="800">Dashboard</text>
  </g>
  <g opacity="0.95">
    <rect x="82" y="516" width="556" height="56" rx="20" fill="#0F1B2E"/>
    <circle cx="118" cy="544" r="15" fill="#182C4A"/>
    <path d="M112 536H124V552H112V536Z" stroke="#89A2C8" stroke-width="2"/>
    <text x="148" y="551" fill="#C9D7EE" font-family="Inter, Segoe UI, Arial" font-size="17" font-weight="700">Resume Analyzer</text>
  </g>
  <g opacity="0.95">
    <rect x="82" y="584" width="556" height="56" rx="20" fill="#0F1B2E"/>
    <circle cx="118" cy="612" r="15" fill="#182C4A"/>
    <path d="M111 612H125" stroke="#89A2C8" stroke-width="2" stroke-linecap="round"/>
    <path d="M118 605V619" stroke="#89A2C8" stroke-width="2" stroke-linecap="round"/>
    <text x="148" y="619" fill="#C9D7EE" font-family="Inter, Segoe UI, Arial" font-size="17" font-weight="700">Mock Assessment</text>
  </g>
  <g opacity="0.95">
    <rect x="82" y="652" width="556" height="56" rx="20" fill="#0F1B2E"/>
    <circle cx="118" cy="680" r="15" fill="#182C4A"/>
    <path d="M111 684L115 680L119 684L125 676" stroke="#89A2C8" stroke-width="2" stroke-linecap="round" stroke-linejoin="round"/>
    <text x="148" y="687" fill="#C9D7EE" font-family="Inter, Segoe UI, Arial" font-size="17" font-weight="700">Gap Analysis</text>
  </g>
  <g opacity="0.95">
    <rect x="82" y="720" width="556" height="56" rx="20" fill="#0F1B2E"/>
    <circle cx="118" cy="748" r="15" fill="#182C4A"/>
    <path d="M111 754H125M111 748H125M111 742H125" stroke="#89A2C8" stroke-width="2" stroke-linecap="round"/>
    <text x="148" y="755" fill="#C9D7EE" font-family="Inter, Segoe UI, Arial" font-size="17" font-weight="700">Learning Roadmap</text>
  </g>
  <g opacity="0.95">
    <rect x="82" y="788" width="556" height="56" rx="20" fill="#0F1B2E"/>
    <circle cx="118" cy="816" r="15" fill="#182C4A"/>
    <path d="M113 806L123 816L113 826" stroke="#89A2C8" stroke-width="2" stroke-linecap="round" stroke-linejoin="round"/>
    <text x="148" y="823" fill="#C9D7EE" font-family="Inter, Segoe UI, Arial" font-size="17" font-weight="700">DSA Coding Lab</text>
  </g>

  <text x="88" y="898" fill="#7FA1C9" font-family="Inter, Segoe UI, Arial" font-size="12" font-weight="800" letter-spacing="2.4">TODAY’S FOCUS</text>
  <rect x="82" y="916" width="556" height="122" rx="28" fill="#101E33" stroke="#6B9DFF" stroke-opacity="0.14"/>
  <circle cx="124" cy="957" r="18" fill="#163D66"/>
  <text x="118" y="964" fill="#9ED1FF" font-family="Inter, Segoe UI, Arial" font-size="18" font-weight="800">1</text>
  <text x="154" y="951" fill="#ECF4FF" font-family="Inter, Segoe UI, Arial" font-size="19" font-weight="800">Complete Resume Review</text>
  <text x="154" y="978" fill="#8EA2C5" font-family="Inter, Segoe UI, Arial" font-size="14" font-weight="600">Extract skills and validate profile accuracy.</text>
  <rect x="494" y="936" width="120" height="42" rx="16" fill="url(#button)"/>
  <text x="526" y="963" fill="#FFFFFF" font-family="Inter, Segoe UI, Arial" font-size="14" font-weight="800">Continue</text>
  <circle cx="124" cy="1003" r="18" fill="#13263F"/>
  <text x="117" y="1010" fill="#6C8CBC" font-family="Inter, Segoe UI, Arial" font-size="18" font-weight="800">2</text>
  <text x="154" y="1008" fill="#A9BCD8" font-family="Inter, Segoe UI, Arial" font-size="15" font-weight="700">Take next mock assessment after resume sync</text>

  <text x="88" y="1080" fill="#7FA1C9" font-family="Inter, Segoe UI, Arial" font-size="12" font-weight="800" letter-spacing="2.4">PROGRESS</text>
  <rect x="82" y="1098" width="272" height="112" rx="28" fill="#101E33" stroke="#6B9DFF" stroke-opacity="0.14"/>
  <circle cx="146" cy="1154" r="33" stroke="#1B3151" stroke-width="12"/>
  <path d="M146 1121 A33 33 0 1 1 120 1180" stroke="#4DB2FF" stroke-width="12" stroke-linecap="round"/>
  <text x="126" y="1160" fill="#ECF4FF" font-family="Inter, Segoe UI, Arial" font-size="18" font-weight="800">78%</text>
  <text x="198" y="1144" fill="#ECF4FF" font-family="Inter, Segoe UI, Arial" font-size="18" font-weight="800">Readiness</text>
  <text x="198" y="1171" fill="#8EA2C5" font-family="Inter, Segoe UI, Arial" font-size="14" font-weight="600">Weekly target: 82%</text>

  <rect x="366" y="1098" width="272" height="112" rx="28" fill="#101E33" stroke="#6B9DFF" stroke-opacity="0.14"/>
  <text x="392" y="1134" fill="#ECF4FF" font-family="Inter, Segoe UI, Arial" font-size="18" font-weight="800">Alerts</text>
  <rect x="392" y="1152" width="220" height="16" rx="8" fill="#16263F"/>
  <rect x="392" y="1152" width="138" height="16" rx="8" fill="#FF718E"/>
  <text x="392" y="1190" fill="#A9BCD8" font-family="Inter, Segoe UI, Arial" font-size="14" font-weight="700">2 missing critical skills: SQL, System Design</text>

  <rect x="82" y="1230" width="556" height="0" stroke="#243D63" stroke-width="0"/>

  <g transform="translate(82 1238)">
    <rect x="0" y="-52" width="556" height="82" rx="28" fill="#0E1A2E" stroke="#6B9DFF" stroke-opacity="0.14"/>
    <rect x="18" y="-34" width="160" height="46" rx="18" fill="url(#button)"/>
    <text x="50" y="-6" fill="#FFFFFF" font-family="Inter, Segoe UI, Arial" font-size="15" font-weight="800">Upload Resume</text>
    <rect x="192" y="-34" width="160" height="46" rx="18" fill="#152944"/>
    <text x="236" y="-6" fill="#CFE1FF" font-family="Inter, Segoe UI, Arial" font-size="15" font-weight="800">Start Test</text>
    <circle cx="462" cy="-11" r="20" fill="#152944"/>
    <path d="M452 -11H472" stroke="#CFE1FF" stroke-width="2" stroke-linecap="round"/>
    <circle cx="514" cy="-11" r="20" fill="#152944"/>
    <path d="M514 -18V-4M507 -11H521" stroke="#CFE1FF" stroke-width="2" stroke-linecap="round"/>
  </g>
</svg>
